# xmcd CD database file
#
# Track frame offsets:
#	150
#	15845
#	36562
#	67658
#	89299
#	118741
#	144887
#	167040
#	184429
#	212293
#	235068
#
# Disc length: 3438 seconds
#
# Revision: 0
# Processed by: cddbd v1.5.2PL0 Copyright (c) Steve Scherf et al.
# Submitted via: CDex 1.51
#
DISCID=870d6c0b
DTITLE=Ratko Zjaca Simone Zanchini - Beyond the lines
DYEAR=2012
DGENRE=Jazz
TTITLE0=Voglio una donna
TTITLE1=Celtico
TTITLE2=River spirit
TTITLE3=Freak in freak out
TTITLE4=The clockwork
TTITLE5=Bale con la uno
TTITLE6=The judge says you are innocent
TTITLE7=Days of old
TTITLE8=The lost call
TTITLE9=the south song
TTITLE10=The easy whistler
EXTD=YEAR: 2012
EXTT0=
EXTT1=
EXTT2=
EXTT3=
EXTT4=
EXTT5=
EXTT6=
EXTT7=
EXTT8=
EXTT9=
EXTT10=
PLAYORDER=
